<svg width="413" height="217" viewBox="0 0 413 217" fill="none" xmlns="http://www.w3.org/2000/svg">
<rect width="413" height="217" fill="black"/>
<mask id="mask0_1_49" style="mask-type:luminance" maskUnits="userSpaceOnUse" x="16" y="48" width="87" height="118">
<path d="M16.9948 48.8646H103V165.865H16.9948V48.8646Z" fill="white"/>
</mask>
<g mask="url(#mask0_1_49)">
<path d="M102.156 65.2292C100.615 61.151 96.7604 57.8385 91.7813 56.3021C89.4219 54.25 86.224 52.875 82.625 52.4323C79.9375 50.8229 76.5469 50.0313 72.9271 50.1927C70.0052 49.0729 66.526 48.8646 62.9948 49.6771C59.6771 49.026 55.9167 49.5625 52.3385 51.2396C46.5469 53.9219 42.8542 59.1927 39.6042 63.8542C38.9531 64.7865 38.3229 65.7188 37.6875 66.651C36.099 67.6302 34.651 68.8177 33.3646 70.1719C31.0521 71.8021 29.0677 73.8542 27.5 76.2083C25.5156 78.2135 23.9271 80.5677 22.7812 83.1563C21.1719 85.4844 20 88.0729 19.349 90.8229C17.7344 94.4115 17.0312 98.1458 17.3385 101.594C17.4062 102.245 17.5 102.922 17.6406 103.573C19.4167 112.083 27.0365 117.724 34.276 122.13L35.5156 122.875C35.4687 123.089 35.4219 123.271 35.375 123.484C34.5833 126.745 32.9687 129.776 31.4062 132.714C30.4479 134.531 29.4427 136.396 28.6458 138.333C26.6146 143.182 25.8437 149.823 29.6771 154C31.5208 156 34 157.005 36.5677 157.448C37.1042 158.193 37.7604 158.849 38.4844 159.38C40.6354 161.036 43.2292 161.573 45.8229 161.573H45.8698C46.5208 162.203 47.2708 162.74 48.0885 163.161C49.6302 163.927 51.3125 164.323 53.0417 164.302C53.9531 164.302 54.8646 164.229 55.75 164.068C56.5 164.583 57.3385 164.979 58.2031 165.255C59.1875 165.563 60.1927 165.724 61.2188 165.698C62.8333 165.677 64.3958 165.375 65.8906 164.792C66.7344 165.161 67.6198 165.396 68.5104 165.516C68.9323 165.563 69.349 165.583 69.7708 165.583C74.7708 165.583 79.0938 161.807 81.9896 158.849C89.2344 151.479 92.1823 144.557 90.7552 138.24C89.2813 131.734 83.4427 127.328 77.3177 123.531L77.1771 123.458C71.3385 119.823 65.3333 116.094 63.0208 109.844C62.6458 108.818 62.3854 107.771 62.25 106.698C62.25 106.536 62.25 106.396 62.25 106.234C62.25 106.068 62.3177 105.927 62.3385 105.766C62.3646 105.604 62.4583 105.464 62.5052 105.323C64.1146 102.594 66.6406 100.078 70.0729 97.8385C73.5104 95.6042 77.3646 93.901 81.0833 92.2708C82.3906 91.6875 83.7448 91.1042 85.0521 90.5C89.7031 88.3281 94.9844 85.5104 98.724 80.9375C102.625 76.2552 103.958 70.0521 102.156 65.2292ZM94.0469 59.6094C96.5938 63.9219 96.3646 70.099 93.4167 75.3438C90.5677 80.4271 85.9167 84.0885 81.7604 86.9792C80.5677 87.8177 79.3542 88.6302 78.1615 89.4271C74.7708 91.6875 71.2656 94.0156 68.2292 96.8385C66.0313 98.8646 64.349 100.99 63.1354 103.13C64.0469 100.802 65.2865 98.6354 66.8021 96.651C69.2813 93.3646 72.2969 90.474 75.2396 87.651C76.2656 86.6719 77.3438 85.651 78.3698 84.625C82.0156 81.0104 85.9896 76.5573 87.9271 70.9844C89.8177 65.5521 89.1875 59.724 86.3594 55.7865C87.8802 55.8333 89.401 56.0417 90.849 56.4167C91.0833 56.4844 91.3385 56.5573 91.5729 56.625C92.5313 57.5104 93.3698 58.5156 94.0469 59.6094ZM43.599 157.635L44.2552 157.563C46.3333 157.38 48.3906 157.052 50.4219 156.583C50.8698 157.891 51.4531 159.125 52.151 160.292C50.2865 160.76 48.1354 161.177 45.9844 161.203C45.0052 160.177 44.1875 158.964 43.599 157.635ZM39.1146 125.115C39.8854 125.604 40.6354 126.073 41.3802 126.583C42.1771 128.495 42.6875 130.521 42.9219 132.573C43.2969 135.906 42.8281 139.313 42.3646 142.62C42.0833 144.651 41.7812 146.771 41.6875 148.844C41.5677 151.552 41.9167 154.604 42.9948 157.286C41.0521 157.427 38.8802 157.448 36.776 157.099C34.2552 153.557 34.1823 148.38 35.0937 144.255C35.5417 142.25 36.1927 140.219 36.8229 138.286C37.8542 135.094 38.9271 131.807 39.1406 128.401C39.2292 127.307 39.2292 126.208 39.1146 125.115ZM19.349 93.4583C19.4167 92.5938 19.5573 91.7552 19.7448 90.9167C20.2604 89.776 20.8646 88.6563 21.5208 87.5833V87.6094C20.2812 96.2083 25.4948 104.135 30.7708 110.734L31.9427 112.177C33.2969 113.88 34.6771 115.578 35.9583 117.328C35.9844 118.052 35.9844 118.776 35.9375 119.495C35.1875 118.823 34.4427 118.167 33.6927 117.516C33.2292 117.12 32.7604 116.698 32.2917 116.302C26.0052 110.755 19.5573 103.948 19.276 95.4167C19.276 94.7656 19.276 94.1094 19.349 93.4583ZM30.6562 73.901L30.6354 73.9219C30.3073 74.5313 30.026 75.1354 29.7917 75.7656C28.7187 76.651 27.6667 77.5573 26.6615 78.5365C27.0104 77.8177 27.4062 77.0938 27.8542 76.4167C28.7187 75.5313 29.6771 74.6927 30.6562 73.901ZM36.2187 68.8177C35.8437 69.375 35.4479 69.9583 35.0469 70.5208C34.0469 71.1042 33.0625 71.6875 32.1302 72.3385C32.5937 71.6875 33.1094 71.0573 33.6719 70.474C34.4896 69.8646 35.3281 69.3333 36.2187 68.8177ZM37.9687 66.9271C39.6302 65.9063 41.3802 65.0625 43.2031 64.4115C42.7344 64.901 42.2448 65.3906 41.7552 65.8802C40.401 66.349 39.0937 66.9063 37.8073 67.5104L37.4583 67.6771L37.9687 66.9271ZM62.974 50.0781C64.2344 50.3333 65.474 50.776 66.5938 51.4063L66.7083 51.474C62.6458 52.9635 59.0469 55.4844 55.776 57.7708C54.6979 58.5156 53.625 59.3073 52.5729 60.0781C51.474 60.8698 50.3333 61.7083 49.1875 62.5C47.7812 62.7344 46.3802 63.0365 45.0052 63.4323C44.8854 63.4583 44.7708 63.5052 44.6302 63.5521L44.9323 63.224C45.8229 62.2917 46.7552 61.3333 47.6667 60.401C51.6615 56.4167 56.1719 51.9167 62.2031 50.2604C62.5052 50.1927 62.7396 50.1198 62.974 50.0781ZM72.8333 50.5885C74.0469 51.0521 75.1667 51.7083 76.1719 52.5208L76.2656 52.6146C74.3021 52.9896 72.3906 53.526 70.5208 54.25C69.7031 53.224 68.7188 52.3125 67.6458 51.5677C69.0938 51.099 70.5885 50.776 72.0833 50.6354C72.3438 50.6094 72.599 50.6094 72.8333 50.5885ZM82.4583 52.8021C83.5573 53.4792 84.5625 54.3177 85.4063 55.276L85.4948 55.3906C83.5104 55.4115 81.5 55.625 79.5625 56.0208C78.9323 54.8542 78.1354 53.8073 77.2031 52.875C78.1823 52.7344 79.1667 52.6615 80.1458 52.6615C80.6823 52.6615 81.1979 52.6875 81.7344 52.7344C81.9688 52.7552 82.224 52.7813 82.4583 52.8021ZM56.5 148.052C55.7969 144.792 55.0729 141.385 53.5573 138.333C51.4062 134.021 47.9687 130.755 44.0677 127.911C43.0156 126.536 41.8958 125.208 40.6823 123.974C39.8854 122.432 39 120.943 38.0156 119.495C37.5052 117.844 36.8958 116.208 36.1719 114.625C35.5885 109.844 33.974 105.089 32.4062 100.427L31.8021 98.6563C29.5833 92.0365 27.6875 84.599 29.4896 77.9583C30.75 76.5781 32.0104 75.1563 33.1823 73.6875L33.3177 73.526L33.7187 73.1979C35.6094 71.776 37.5729 70.2865 39.3698 68.6771L39.5365 68.5365L40.0052 68.3073C42.1302 67.2344 44.3021 66.1146 46.3594 64.8333L46.5469 64.7135L47.0573 64.5521C49.3281 63.8542 51.6875 63.1302 53.9271 62.2188L54.1406 62.151L54.651 62.0833C57.0156 61.776 59.4427 61.474 61.8021 60.9844C64.375 60.4271 66.9427 59.7031 69.4219 58.9792C70.4271 58.7031 71.4323 58.3958 72.4583 58.1198C73.4375 60.3802 73.9531 62.8021 73.9792 65.276C74.0469 71.0781 71.849 76.5781 69.7031 81.1719C69.0938 82.4792 68.4375 83.8073 67.8073 85.0885C66.0104 88.724 64.1406 92.5 62.9271 96.4635C61.875 99.8906 61.5 103.036 61.7552 105.885C61.4531 106.464 61.1979 107.073 60.9635 107.677C58.651 114.068 60.9844 121.177 63.0208 127.448L63.0677 127.589C65.2604 134.323 66.8958 141.365 63.9063 147.146C62.599 149.661 60.5677 151.714 57.7865 153.297C57.2708 151.62 56.875 149.823 56.5 148.052ZM57.4323 153.599C55.3073 154.719 53.0625 155.557 50.7292 156.12C50.3073 154.839 50.026 153.51 49.8385 152.177C49.5833 150.151 49.4896 148.031 49.4219 145.979C49.3021 142.62 49.1615 139.172 48.2031 135.906C47.4583 133.458 46.3333 131.151 44.8646 129.052C48.2969 131.688 51.2865 134.698 53.1823 138.542C54.6771 141.552 55.401 144.906 56.1042 148.172C56.474 149.943 56.8958 151.807 57.4323 153.599ZM42.9219 127.099C42.526 126.818 42.151 126.563 41.7552 126.302C41.6146 125.932 41.4531 125.557 41.2865 125.208C41.8229 125.813 42.3854 126.443 42.9219 127.099ZM39.6771 122.969C39.349 122.646 39 122.318 38.6458 121.99C38.5521 121.594 38.4583 121.198 38.3646 120.828C38.8333 121.526 39.2552 122.25 39.6771 122.969ZM36.3802 117.188C36.3594 116.792 36.3333 116.375 36.3125 115.979C36.6406 116.745 36.9167 117.536 37.1979 118.333C36.9427 117.958 36.6615 117.563 36.3802 117.188ZM25.3281 82.526C26.3333 81.3802 27.3594 80.2656 28.3906 79.1667L28.9062 78.6094C27.4062 85.1823 29.2552 92.3854 31.4062 98.8438C31.6146 99.4271 31.8021 100.01 32.0104 100.615C33.4375 104.813 34.8854 109.099 35.5625 113.391C34.4167 110.964 33.1094 108.589 31.8229 106.234L30.9375 104.599C27.2656 97.8177 23.8333 90.0313 25.3281 82.526ZM29.7448 77.0938C29.8594 76.7448 29.9792 76.3698 30.1406 76.0208C30.75 75.5313 31.3594 75.0677 31.9635 74.599C31.2396 75.4635 30.4948 76.3021 29.7448 77.0938ZM34.2083 72.3594C34.5833 71.849 34.9531 71.3333 35.3073 70.8229C36.1927 70.3073 37.1042 69.8177 37.9948 69.3542C36.776 70.401 35.4948 71.4063 34.2083 72.3594ZM44.9115 65.276C43.5052 66.0885 42.0573 66.8385 40.6354 67.5833C41.099 67.1406 41.5469 66.6979 41.9896 66.2552C42.9479 65.9063 43.9271 65.5781 44.9115 65.276ZM47.7812 63.9479C48.3229 63.5938 48.8333 63.2448 49.349 62.875C50.3542 62.7083 51.3802 62.5469 52.3854 62.4063C50.8698 62.9896 49.3281 63.4792 47.7812 63.9479ZM55.474 61.6146C57.3646 60.7969 59.2344 59.8646 61.0313 59.0052C62.2031 58.4427 63.3906 57.8594 64.5833 57.3021C66.4323 56.4375 68.3698 55.5313 70.401 54.7604C71.125 55.7188 71.7552 56.7448 72.25 57.8125C71.2448 58.0938 70.2396 58.375 69.2552 58.6563C66.7813 59.375 64.2344 60.099 61.6615 60.6354C59.6563 61.0781 57.526 61.3594 55.474 61.6146ZM74.349 65.3438C74.3281 62.849 73.8125 60.3802 72.8333 58.0938L73.1823 58C75.1458 57.4635 77.224 56.9063 79.3542 56.5104C81.0104 59.6354 81.6406 63.5938 80.9896 67.5573C80.0521 73.2917 76.9427 78.3281 74.026 82.4792C73.1823 83.6667 72.3177 84.8542 71.4792 86C69.0729 89.2865 66.5729 92.6667 64.7031 96.3698C63.3438 99.0313 62.4792 101.594 62.0833 104.016C62.1563 101.526 62.5521 99.0521 63.2969 96.6771C64.4896 92.7604 66.3385 88.9844 68.1354 85.3438C68.7656 84.0625 69.4219 82.7344 70.026 81.4271C72.224 76.7656 74.4219 71.2188 74.349 65.3438ZM64.2552 147.422C67.3177 141.505 65.6823 134.37 63.4635 127.542L63.4167 127.401C61.2917 120.917 59.0938 114.203 61.3125 107.979C61.2917 108.146 61.2448 108.286 61.2188 108.448C60.0521 115.135 63.5781 121.734 66.6875 127.563L66.7552 127.703C70.099 133.948 72.9271 140.615 70.9844 146.818C69.5365 151.458 65.7083 155.141 59.5365 157.823C58.9062 156.63 58.3906 155.375 57.9948 154.089C57.974 154 57.9271 153.88 57.901 153.786C60.776 152.156 62.901 150.01 64.2552 147.422ZM65.0521 96.5104C66.9219 92.8542 69.3958 89.474 71.8021 86.2083C72.6458 85.0677 73.5104 83.875 74.349 82.6875C77.2969 78.4896 80.4479 73.4115 81.3854 67.6042C82.0365 63.5938 81.4063 59.6094 79.75 56.4167C81.6667 56.0417 83.6042 55.8333 85.5677 55.8125H85.8229C88.7448 59.6563 89.4219 65.4844 87.5313 70.8906C85.6146 76.3698 81.6667 80.8021 78.0677 84.3646C77.0365 85.3906 75.9896 86.3958 74.9583 87.3958C72.0156 90.2188 68.9792 93.1302 66.4792 96.4427C64.6771 98.8438 63.3698 101.198 62.5729 103.526C63.0677 101.083 63.9063 98.724 65.0521 96.5104ZM79.1406 56.0885C77.0625 56.4844 75.0052 57.0469 73.0677 57.5833L72.6667 57.6979C72.1771 56.6042 71.5469 55.5521 70.8229 54.599C72.7135 53.875 74.6771 53.3177 76.6875 52.9635C77.6458 53.875 78.4896 54.9219 79.1406 56.0885ZM70.1458 54.4115C68.1615 55.1823 66.2448 56.0677 64.4219 56.9271C63.2292 57.4896 62.0365 58.0729 60.8698 58.6302C58.625 59.724 56.3333 60.8438 54 61.8021C52.7135 61.9635 51.4271 62.125 50.1458 62.3385C51.0573 61.6823 51.9427 61.0313 52.8333 60.401C53.8594 59.6563 54.9323 58.8646 56.0104 58.1198C59.349 55.7865 63.0208 53.1979 67.1563 51.7552C68.276 52.4792 69.2813 53.3646 70.1458 54.4115ZM45.1458 63.8073C46.2187 63.5052 47.2917 63.2708 48.3906 63.0625C47.7135 63.526 47.0365 63.9688 46.3594 64.3906C45.1458 64.7865 43.9062 65.1563 42.6875 65.5781C43.1562 65.0885 43.6458 64.6198 44.1146 64.1302C44.4167 64.0156 44.7708 63.901 45.1458 63.8073ZM37.9948 67.8854C39 67.3958 40.026 66.974 41.0521 66.5781C40.4687 67.1406 39.8854 67.6979 39.3021 68.2344C38.1562 68.8177 37.0104 69.4219 35.8646 70.0521C36.2656 69.4948 36.6406 68.9323 37.0104 68.375C37.3177 68.2135 37.6667 68.0469 37.9948 67.8854ZM31.6615 73.1563C32.5729 72.5 33.5052 71.8958 34.4635 71.3333C34 71.9896 33.5052 72.6406 33.0156 73.2917C32.1771 73.9479 31.3125 74.5781 30.4687 75.25C30.6354 74.8802 30.8177 74.5052 31.0052 74.1354C31.1719 73.8542 31.3333 73.5521 31.5 73.2708L31.6615 73.1563ZM26.3594 79.4271C27.3594 78.4219 28.4115 77.4427 29.5104 76.5573C29.3698 76.9531 29.2292 77.3958 29.1146 77.8177L28.0885 78.9115C27.224 79.8229 26.3594 80.7552 25.5156 81.7083C25.6094 81.3125 25.724 80.9167 25.8646 80.5208C25.9583 80.2188 26.0781 79.8906 26.1927 79.5885L26.3594 79.4271ZM25.4948 80.3802C25.2812 81.0313 25.1198 81.6875 24.9792 82.3385C24.0677 83.3854 23.1771 84.4844 22.3854 85.6042C22.5937 84.8333 22.875 84.0625 23.1771 83.3177C23.901 82.2708 24.6771 81.2917 25.5156 80.3333L25.4948 80.3802ZM22.2187 86.5104C23.0365 85.3438 23.901 84.2031 24.8125 83.1302C23.625 90.5417 26.9896 98.1458 30.5885 104.74L31.474 106.375C32.9948 109.125 34.5104 111.896 35.776 114.74C35.8437 115.349 35.8906 115.979 35.9375 116.583C34.7448 115 33.5052 113.458 32.2708 111.896L31.099 110.453C25.8906 103.901 20.724 96.0677 21.9427 87.6302C21.9896 87.3021 22.0365 86.9792 22.1042 86.651L22.2187 86.5104ZM36.4062 117.911C36.8229 118.495 37.2448 119.099 37.6406 119.682C37.8281 120.266 37.9948 120.87 38.1354 121.479C37.5469 120.917 36.9427 120.38 36.3594 119.849C36.3802 119.193 36.4062 118.563 36.4062 117.911ZM38.276 122.203C38.4115 122.901 38.5312 123.625 38.625 124.344C37.7812 123.807 36.9167 123.297 36.0521 122.781L35.9375 122.714C36.099 121.943 36.1927 121.151 36.2656 120.38C36.9635 120.964 37.6198 121.573 38.276 122.203ZM38.7865 122.693C39.3021 123.203 39.8177 123.719 40.3281 124.229C40.6094 124.786 40.8698 125.349 41.125 125.906C40.4479 125.464 39.7708 125.047 39.0937 124.604C39.0208 123.948 38.9062 123.318 38.7865 122.693ZM42.1302 148.844C42.224 146.797 42.526 144.698 42.8073 142.667C43.276 139.359 43.7396 135.906 43.3698 132.526C43.1562 130.615 42.6875 128.75 42.0104 126.979C42.6198 127.375 43.2031 127.797 43.7865 128.214C45.5625 130.568 46.9635 133.135 47.8073 135.979C48.7656 139.193 48.8802 142.646 49 145.953C49.0677 148.005 49.1615 150.13 49.4219 152.203C49.6042 153.557 49.8854 154.885 50.3073 156.188C48.2969 156.656 46.2656 156.958 44.2344 157.167C43.974 157.193 43.7187 157.214 43.4375 157.24C42.3646 154.604 42.0104 151.552 42.1302 148.844ZM50.8437 156.49C53.1823 155.958 55.4271 155.115 57.5521 154C57.5729 154.068 57.599 154.135 57.6198 154.208C58.0417 155.516 58.5573 156.771 59.1875 157.984C57.2917 158.776 55.3542 159.453 53.3698 159.99C53.1094 160.057 52.8542 160.13 52.599 160.198C51.875 159.031 51.2865 157.797 50.8437 156.49ZM53.4635 160.385C55.474 159.828 57.4323 159.151 59.375 158.359C60.026 159.568 60.8229 160.688 61.7344 161.714C59.9583 162.505 57.9271 163.276 55.8229 163.672C54.6302 162.833 53.625 161.781 52.8333 160.573L53.4635 160.385ZM59.75 158.172C65.9844 155.422 69.8906 151.646 71.3854 146.911C73.3698 140.547 70.5208 133.813 67.1302 127.469L67.0625 127.328C63.8385 121.318 60.5208 115.068 61.6146 108.563C61.6146 108.729 61.6146 108.865 61.6146 109.031C61.6406 115.813 66.2448 121.714 70.3333 126.911L70.4271 127.026C74.8177 132.62 78.7448 138.661 77.901 145.115C77.0833 151.385 72.0156 156.771 62.8333 161.156C62.599 161.271 62.3646 161.385 62.1094 161.479C61.1979 160.5 60.401 159.38 59.75 158.172ZM63.0208 161.552C72.3438 157.099 77.4844 151.599 78.3229 145.188C79.1875 138.589 75.1927 132.432 70.7552 126.792L70.6615 126.677C66.4323 121.292 62.0833 115.745 62.0365 109.146C62.0625 109.307 62.0833 109.448 62.1094 109.615C63.2969 116.281 68.8854 121.292 73.7917 125.698L73.9063 125.792C79.1875 130.521 84.1198 135.813 84.4219 142.318C84.7031 148.615 80.6615 154.813 72.3646 160.734C70.5677 162.016 68.3229 163.464 65.8906 164.37C64.5833 163.74 63.4167 162.901 62.4115 161.828L63.0208 161.552ZM90.776 56.0208C89.2344 55.6458 87.6458 55.4375 86.0365 55.4115C85.9427 55.2969 85.8229 55.1563 85.7292 55.0417C85.0521 54.25 84.2813 53.5469 83.4427 52.9635C86.2448 53.4323 88.7708 54.5052 90.776 56.0208ZM81.5729 52.3125C79.9844 52.1979 78.3698 52.2656 76.8073 52.5208C76.6875 52.4063 76.5729 52.3125 76.4323 52.2188C75.6354 51.5417 74.75 50.9844 73.8125 50.5625C76.6667 50.5625 79.3281 51.1719 81.5729 52.3125ZM67.224 49.5885C68.8125 49.5885 70.3802 49.7969 71.875 50.2604C70.2865 50.4271 68.7188 50.776 67.224 51.2865C67.0833 51.1927 66.9427 51.125 66.8281 51.0313C65.9167 50.5208 64.9583 50.1458 63.9531 49.8646C65.0052 49.6771 66.125 49.5885 67.224 49.5885ZM39.9323 64.0833C43.1562 59.4688 46.8281 54.25 52.4792 51.5885C55.6562 50.099 58.9531 49.5625 61.9688 49.9115C55.9167 51.6146 51.4062 56.1146 47.4115 60.099C46.474 61.0313 45.5625 61.9896 44.651 62.9219L43.8333 63.7813C41.9896 64.3906 40.1875 65.1823 38.5052 66.1354C39 65.4375 39.4635 64.7604 39.9323 64.0833ZM37.1042 67.5104L36.7292 68.0729C36.2656 68.3281 35.7969 68.5833 35.3542 68.8438C35.8906 68.3958 36.474 67.9323 37.1042 67.5104ZM32.1042 71.6615C31.9635 71.849 31.8229 72.0365 31.6823 72.224C31.5208 72.4531 31.3594 72.7083 31.1927 72.9688C30.4948 73.4792 29.8385 74.0156 29.2083 74.5521C30.0937 73.526 31.0521 72.5469 32.1042 71.6615ZM26.5208 77.9115C26.401 78.1198 26.3125 78.3281 26.2187 78.5365C26.099 78.8177 25.9844 79.0729 25.8646 79.3542C25.2812 79.9844 24.7187 80.6146 24.1823 81.2656C24.8594 80.0521 25.6302 78.9375 26.5208 77.9115ZM22.1042 84.9948C22.0365 85.2292 21.9635 85.4375 21.9167 85.6719C21.849 85.9531 21.776 86.2552 21.7083 86.5365C21.2396 87.2552 20.7969 87.9792 20.375 88.7031C20.8437 87.4219 21.4271 86.1875 22.1042 84.9948ZM34.4635 121.807C27.3385 117.422 19.7917 111.849 18.0365 103.484C17.8958 102.854 17.8073 102.198 17.7604 101.573C17.5 98.75 17.9427 95.7448 19.0208 92.7344C18.9948 92.9688 18.974 93.2031 18.9479 93.4323C18.901 94.0885 18.8802 94.7656 18.901 95.4167C19.1823 104.089 25.7031 110.99 32.0365 116.583C32.5 116.979 32.9687 117.401 33.4375 117.797C34.276 118.516 35.0937 119.266 35.9375 119.984C35.8646 120.802 35.776 121.62 35.6094 122.432L34.4635 121.807ZM29.9792 153.74C26.2656 149.708 27.0573 143.229 29.0208 138.495C29.8125 136.583 30.8177 134.719 31.776 132.922C33.3437 129.964 34.9792 126.911 35.776 123.599C35.8177 123.438 35.8437 123.271 35.8906 123.135C36.8229 123.693 37.7812 124.276 38.7187 124.859C38.8333 126.026 38.8594 127.214 38.7865 128.38C38.5781 131.734 37.5052 135 36.5 138.172C35.8646 140.125 35.2135 142.156 34.7448 144.182C33.8333 148.266 33.8802 153.37 36.2656 157.005C33.8802 156.516 31.6615 155.557 29.9792 153.74ZM37.151 157.563C38.25 157.703 39.3698 157.776 40.4948 157.776C41.4271 157.776 42.3385 157.729 43.1823 157.656C43.7187 158.964 44.4896 160.151 45.4479 161.203C43.0625 161.156 40.6823 160.594 38.7187 159.078C38.1354 158.635 37.5937 158.125 37.151 157.563ZM48.25 162.833C47.599 162.505 46.9896 162.089 46.4531 161.599C48.4635 161.505 50.4687 161.177 52.4115 160.667C53.1823 161.854 54.1406 162.901 55.2604 163.74C52.901 164.115 50.4479 163.974 48.25 162.833ZM58.2969 164.885C57.599 164.672 56.9219 164.37 56.3125 163.974C58.276 163.531 60.1927 162.88 62.0156 162.016C62.974 163.042 64.0938 163.906 65.3542 164.557C63.0885 165.328 60.6562 165.609 58.2969 164.885ZM76.9688 123.88L77.1094 123.974C83.1354 127.724 88.9323 132.063 90.3594 138.427C91.7344 144.578 88.8177 151.385 81.6875 158.635C78.6042 161.76 73.9063 165.865 68.5573 165.161C67.8333 165.073 67.1094 164.885 66.4323 164.63C68.7656 163.698 70.8906 162.318 72.599 161.083C81.0104 155.094 85.125 148.776 84.8177 142.318C84.5156 135.677 79.5156 130.313 74.1667 125.51L74.0469 125.396C68.9531 120.828 63.6979 116.115 62.5052 109.615C62.5521 109.755 62.599 109.917 62.6458 110.057C64.9792 116.422 71.3385 120.38 76.9688 123.88ZM98.4167 80.7552C94.75 85.25 89.5156 88.0521 84.9115 90.1927C83.6042 90.8021 82.25 91.4063 80.9427 91.9635C77.2031 93.599 73.349 95.3021 69.8906 97.5625C67.3906 99.1927 65.3333 100.964 63.7917 102.875C65.099 100.755 66.6875 98.8177 68.5313 97.1406C71.5469 94.3438 75.0313 92.0104 78.3958 89.75C79.5833 88.9583 80.8021 88.1406 81.9948 87.3021C86.1979 84.3646 90.8958 80.6823 93.7917 75.5313C96.8073 70.1719 97.0417 63.8281 94.401 59.401C93.8646 58.5156 93.2292 57.6771 92.5052 56.9531C96.9688 58.5625 100.38 61.6146 101.781 65.3438C103.536 70.0781 102.203 76.1146 98.4167 80.7552Z" fill="#A0E4B0"/>
</g>
<path d="M123.116 125.207C129.945 125.207 134.372 122.061 134.372 117.259C134.372 112.942 130.741 110.009 123.757 108.624C117.997 107.504 116.023 106.384 116.023 104.035C116.023 101.582 118.372 100.088 122.372 100.088C126.585 100.088 129.09 101.744 129.413 104.78H133.835C133.465 99.3427 129.142 96.1448 122.32 96.1448C115.653 96.1448 111.601 99.0771 111.601 104.035C111.601 108.41 114.96 111.077 122.106 112.249C127.491 113.155 129.945 114.65 129.945 117.155C129.945 119.66 127.382 121.207 123.169 121.207C118.424 121.207 115.601 119.181 115.439 115.822H111.012C111.116 121.473 115.866 125.207 123.116 125.207Z" fill="white"/>
<path d="M151.275 124.942C155.754 124.942 159.275 123.499 161.78 120.676L162.26 124.515H165.942V106.916C165.942 100.515 161.088 96.1448 153.832 96.1448C147.806 96.1448 143.275 99.3948 142.051 104.728H146.582C147.489 102.009 150.317 100.301 153.89 100.301C158.582 100.301 161.463 102.916 161.463 107.233V108.249H150.155C144.395 108.249 140.609 111.504 140.609 116.515C140.609 121.744 144.609 124.942 151.275 124.942ZM145.088 116.463C145.088 113.848 147.223 112.197 150.317 112.197H161.515C161.353 117.317 157.197 120.942 151.437 120.942C147.541 120.942 145.088 119.181 145.088 116.463Z" fill="white"/>
<path d="M175.271 124.515H179.75V109.796C179.75 104.088 182.953 100.41 187.75 100.41C192.391 100.41 195.323 103.931 195.323 109.421V124.515H199.802V109.796C199.802 104.088 203.005 100.41 207.802 100.41C212.443 100.41 215.375 103.931 215.375 109.421V124.515H219.854V108.676C219.854 100.942 215.375 96.1448 208.391 96.1448C203.912 96.1448 200.287 98.0615 198.099 101.582C196.229 98.0094 192.818 96.1448 188.391 96.1448C184.552 96.1448 181.458 97.5823 179.38 100.301L178.953 96.8375H175.271V124.515Z" fill="white"/>
<path d="M244.333 125.207C252.494 125.207 258.411 119.077 258.411 110.65C258.411 102.275 252.494 96.1448 244.333 96.1448C239.801 96.1448 235.958 98.0094 233.452 101.103L232.921 96.8375H229.239V135.181H233.718V120.567C236.228 123.447 239.958 125.207 244.333 125.207ZM233.562 110.65C233.562 104.676 237.775 100.41 243.744 100.41C249.77 100.41 253.932 104.676 253.932 110.65C253.932 116.676 249.77 120.89 243.744 120.89C237.775 120.89 233.562 116.676 233.562 110.65Z" fill="white"/>
<path d="M266.142 124.515H270.621V85.0511H266.142V124.515Z" fill="white"/>
<path d="M290.566 125.207C297.395 125.207 301.822 122.061 301.822 117.259C301.822 112.942 298.191 110.009 291.207 108.624C285.447 107.504 283.473 106.384 283.473 104.035C283.473 101.582 285.822 100.088 289.822 100.088C294.035 100.088 296.54 101.744 296.863 104.78H301.285C300.915 99.3427 296.593 96.1448 289.77 96.1448C283.103 96.1448 279.051 99.0771 279.051 104.035C279.051 108.41 282.41 111.077 289.556 112.249C294.941 113.155 297.395 114.65 297.395 117.155C297.395 119.66 294.832 121.207 290.619 121.207C285.874 121.207 283.051 119.181 282.889 115.822H278.462C278.566 121.473 283.316 125.207 290.566 125.207Z" fill="white"/>
<path d="M321.605 124.515H325.767V120.197H321.819C318.137 120.197 316.434 118.327 316.434 114.327V100.942H325.392V96.8375H316.434V89.9573H312.965L312.538 93.6917C312.22 96.1969 311.47 96.8375 308.913 96.8375H306.137V100.942H311.954V114.541C311.954 120.89 315.47 124.515 321.605 124.515Z" fill="white"/>
<path d="M342.403 124.942C346.882 124.942 350.403 123.499 352.908 120.676L353.387 124.515H357.07V106.916C357.07 100.515 352.215 96.1448 344.96 96.1448C338.934 96.1448 334.403 99.3948 333.179 104.728H337.71C338.616 102.009 341.445 100.301 345.017 100.301C349.71 100.301 352.59 102.916 352.59 107.233V108.249H341.283C335.523 108.249 331.736 111.504 331.736 116.515C331.736 121.744 335.736 124.942 342.403 124.942ZM336.215 116.463C336.215 113.848 338.351 112.197 341.445 112.197H352.642C352.481 117.317 348.325 120.942 342.564 120.942C338.668 120.942 336.215 119.181 336.215 116.463Z" fill="white"/>
<path d="M366.399 124.515H370.878V112.567H374.185C375.466 112.567 376.638 112.515 377.706 112.301L385.331 124.515H390.664L382.024 110.806C384.05 109.53 385.492 107.447 386.612 104.41L389.383 96.8375H384.586L382.508 102.754C380.961 107.233 378.826 108.41 374.346 108.41H370.878V85.0511H366.399V124.515Z" fill="white"/>
</svg>
